<?xml version="1.0" standalone="no"?>
<!DOCTYPE svg PUBLIC "-//W3C//DTD SVG 20010904//EN"
 "http://www.w3.org/TR/2001/REC-SVG-20010904/DTD/svg10.dtd">
<svg version="1.0" xmlns="http://www.w3.org/2000/svg"
 width="803.000000pt" height="803.000000pt" viewBox="0 0 803.000000 803.000000"
 preserveAspectRatio="xMidYMid meet">
<metadata>
Created by potrace 1.11, written by Peter Selinger 2001-2013
</metadata>
<g transform="translate(0.000000,803.000000) scale(0.100000,-0.100000)"
fill="#000000" stroke="none">
<path d="M3967 7414 c-1 -1 -65 -5 -142 -8 -77 -4 -156 -9 -175 -11 -19 -3
-54 -7 -76 -10 -23 -2 -55 -7 -70 -10 -16 -3 -42 -7 -59 -9 -45 -4 -311 -65
-385 -88 -129 -40 -246 -80 -305 -105 -33 -14 -82 -35 -110 -47 -78 -32 -324
-159 -390 -201 -159 -100 -346 -234 -439 -315 -182 -157 -358 -341 -485 -505
-17 -22 -38 -49 -47 -60 -37 -48 -184 -274 -184 -283 0 -6 -4 -12 -8 -14 -5
-1 -15 -15 -23 -29 -32 -59 -165 -327 -181 -364 -55 -132 -119 -308 -124 -340
0 -5 -3 -17 -7 -25 -13 -35 -46 -161 -61 -230 -28 -131 -29 -138 -41 -220 -4
-30 -9 -64 -12 -75 -6 -32 -17 -146 -17 -192 -1 -24 -3 -43 -6 -43 -3 0 -5
-93 -4 -208 1 -181 5 -258 19 -387 8 -85 30 -220 49 -310 19 -90 27 -125 36
-155 22 -81 52 -186 58 -200 3 -8 6 -19 8 -25 7 -25 74 -206 95 -255 40 -94
184 -374 217 -424 18 -26 32 -50 32 -53 0 -3 20 -34 45 -70 25 -35 45 -66 45
-69 0 -3 11 -17 25 -32 14 -15 25 -32 25 -39 0 -6 3 -13 8 -15 4 -2 32 -34 62
-73 147 -189 374 -418 546 -551 100 -78 107 -83 169 -127 62 -44 249 -163 297
-188 185 -97 476 -228 545 -244 20 -5 140 -43 163 -52 18 -7 12 -6 80 -22 30
-7 66 -16 80 -21 14 -5 39 -11 55 -14 17 -3 44 -8 60 -11 34 -8 54 -11 110
-19 22 -4 65 -11 95 -16 49 -9 84 -12 245 -25 57 -5 411 -5 465 0 25 2 74 6
110 10 36 3 76 7 90 10 14 3 43 7 65 10 153 21 358 70 546 130 103 33 128 42
196 71 17 8 38 14 47 14 9 0 16 5 16 10 0 6 7 10 15 10 8 0 46 15 85 34 38 19
70 31 70 28 0 -4 4 -2 8 3 4 6 36 25 72 42 70 35 222 124 310 181 57 38 241
171 250 181 3 3 32 28 65 56 131 108 279 255 407 405 81 94 88 103 88 109 0 3
11 19 25 34 39 41 187 265 249 375 193 345 334 738 391 1092 3 19 8 46 10 60
12 58 28 205 29 262 1 21 3 38 6 38 14 0 0 514 -17 615 -4 22 -6 43 -5 47 1 4
-3 30 -8 57 -5 28 -12 72 -16 98 -3 26 -8 55 -10 63 -2 8 -10 46 -18 83 -25
111 -63 244 -105 367 -35 102 -48 138 -80 215 -19 47 -174 360 -180 365 -4 3
-22 32 -40 65 -41 73 -112 179 -123 183 -4 2 -8 8 -8 13 0 11 -101 147 -154
210 -17 20 -49 57 -71 83 -119 141 -315 324 -481 451 -123 94 -142 107 -172
125 -14 8 -35 23 -46 33 -11 9 -25 17 -32 17 -7 0 -14 4 -16 8 -4 12 -250 152
-266 152 -6 0 -12 5 -12 10 0 6 -4 10 -10 10 -5 0 -45 16 -87 36 -89 42 -253
108 -322 130 -25 8 -53 18 -61 21 -8 3 -24 8 -35 10 -11 1 -29 7 -40 12 -11 5
-33 13 -50 17 -16 4 -34 8 -40 10 -155 41 -345 78 -459 89 -28 3 -62 7 -75 10
-40 8 -387 24 -394 19z m253 -188 c63 -3 124 -8 135 -10 11 -2 45 -7 75 -11
30 -4 64 -9 75 -11 11 -2 37 -6 57 -9 30 -4 86 -15 143 -29 6 -2 28 -6 50 -10
22 -4 47 -10 55 -13 18 -7 28 -10 55 -16 11 -2 27 -7 35 -10 8 -3 62 -20 120
-38 58 -18 109 -36 115 -41 5 -4 15 -8 21 -8 22 0 347 -148 355 -162 5 -7 9
-9 9 -5 0 5 13 -1 29 -12 16 -12 32 -21 35 -21 21 0 379 -238 406 -270 3 -3
15 -13 27 -21 100 -68 373 -341 496 -494 92 -115 227 -308 227 -324 0 -5 3
-11 8 -13 22 -9 181 -319 242 -473 32 -79 98 -266 105 -295 1 -8 14 -58 27
-110 30 -117 46 -184 52 -230 3 -19 7 -44 10 -55 3 -18 11 -67 21 -145 24
-178 24 -632 0 -745 -3 -11 -7 -42 -10 -70 -5 -48 -8 -70 -20 -132 -3 -16 -8
-41 -10 -56 -2 -16 -12 -56 -20 -90 -9 -34 -19 -75 -22 -92 -5 -33 -97 -319
-113 -350 -5 -11 -18 -42 -29 -70 -26 -70 -115 -252 -169 -349 -78 -140 -252
-394 -318 -466 -8 -8 -31 -35 -51 -60 -54 -63 -268 -276 -332 -330 -29 -25
-59 -50 -65 -56 -60 -57 -334 -244 -461 -314 -157 -87 -446 -218 -520 -235 -5
-1 -17 -5 -25 -8 -53 -21 -274 -82 -282 -77 -2 1 -16 -4 -32 -10 -16 -6 -45
-13 -65 -16 -20 -3 -43 -7 -51 -9 -51 -14 -207 -35 -380 -51 -48 -4 -385 -4
-440 0 -54 4 -151 15 -200 21 -85 12 -107 15 -130 20 -64 12 -77 15 -100 19
-53 9 -256 62 -320 84 -8 3 -23 7 -33 9 -10 1 -82 28 -160 59 -246 97 -502
233 -673 359 -23 16 -52 37 -64 45 -24 16 -117 88 -136 105 -7 5 -34 28 -60
50 -54 45 -278 267 -338 335 -134 152 -383 521 -411 609 -3 12 -11 21 -16 21
-5 0 -9 8 -9 18 0 10 -7 28 -15 40 -30 42 -157 351 -170 415 -2 9 -7 22 -10
27 -6 10 -28 86 -47 165 -5 22 -11 47 -13 55 -22 87 -34 142 -40 180 -3 25 -8
52 -10 60 -7 29 -20 133 -31 260 -13 146 -7 515 11 630 3 19 7 51 10 70 2 19
6 44 8 55 3 11 8 43 12 70 5 28 9 52 10 55 0 3 4 21 8 40 12 62 15 73 42 170
14 52 27 102 30 110 7 31 74 217 95 265 11 28 26 63 33 80 23 57 157 319 172
335 8 9 15 20 15 24 0 15 195 303 220 326 3 3 21 25 40 50 50 65 81 98 210
230 109 112 153 153 264 245 75 63 290 215 304 215 6 0 12 3 12 8 0 4 21 19
48 32 26 14 49 27 52 30 23 23 280 148 414 202 161 64 403 138 531 162 86 17
155 29 180 32 17 2 41 6 55 8 14 3 54 8 90 11 146 12 184 15 186 18 4 4 246 0
364 -7z"/>
<path d="M2705 5665 c-27 -27 -117 -127 -162 -181 -17 -20 -113 -129 -158
-180 -11 -12 -45 -50 -75 -85 -30 -35 -62 -70 -70 -79 -8 -9 -42 -47 -75 -85
-59 -69 -111 -128 -130 -149 -6 -6 -62 -69 -124 -141 -63 -71 -140 -159 -171
-195 -32 -36 -73 -83 -91 -105 -19 -22 -39 -44 -45 -50 -6 -5 -37 -41 -70 -79
-32 -38 -69 -81 -82 -94 l-22 -25 22 -26 c13 -14 33 -37 45 -51 13 -14 31 -34
40 -46 30 -36 137 -156 163 -184 14 -15 50 -55 80 -91 30 -35 57 -66 60 -69 3
-3 66 -75 140 -160 74 -85 144 -164 155 -175 11 -11 29 -32 40 -46 17 -21 67
-78 160 -183 6 -6 41 -47 80 -91 38 -44 82 -93 97 -110 15 -16 36 -41 48 -55
12 -14 44 -51 73 -83 28 -32 61 -70 72 -83 l21 -24 249 2 249 3 52 75 c28 41
59 83 68 93 9 9 16 19 16 22 0 3 106 156 174 250 8 11 92 130 187 265 94 135
251 358 348 495 96 138 179 252 183 253 5 2 8 8 8 13 0 5 31 53 70 106 38 54
75 105 80 113 57 81 274 389 283 400 7 9 35 49 62 90 28 41 52 77 55 80 6 5
64 87 145 205 101 146 125 174 140 169 8 -4 15 -12 15 -19 0 -7 4 -15 9 -17 4
-1 61 -64 126 -138 65 -74 126 -144 136 -155 10 -11 27 -29 36 -41 25 -29 123
-141 153 -174 14 -15 45 -51 70 -80 25 -29 63 -73 85 -99 22 -25 52 -58 67
-73 14 -16 25 -28 23 -28 -2 0 11 -15 28 -34 18 -18 48 -51 67 -73 37 -42 129
-147 168 -189 29 -33 28 -42 -14 -89 -73 -81 -92 -103 -238 -270 -82 -93 -171
-194 -197 -223 -27 -29 -49 -55 -49 -57 0 -3 -12 -17 -27 -33 -24 -24 -80 -87
-156 -176 -32 -37 -112 -128 -123 -140 -9 -10 -130 -147 -203 -231 -14 -17
-42 -49 -61 -71 -19 -22 -66 -75 -105 -118 -38 -43 -74 -84 -78 -92 -7 -12 30
-14 237 -14 l244 0 54 61 c29 34 60 69 68 78 9 9 43 48 75 86 33 39 65 75 71
80 5 6 39 44 75 85 35 41 69 80 74 86 6 6 35 39 65 74 30 35 60 68 65 74 6 6
39 45 75 86 56 64 81 93 145 164 6 6 39 45 75 86 36 41 67 77 70 80 3 3 37 41
75 85 39 44 82 93 97 110 14 16 35 40 45 51 10 12 41 47 68 79 28 32 61 69 73
82 27 27 23 36 -35 99 -15 17 -57 64 -93 105 -36 41 -69 79 -75 85 -9 10 -64
74 -114 133 -11 12 -49 55 -84 95 -35 39 -79 89 -98 111 -19 22 -43 49 -54 61
-11 12 -43 48 -71 80 -80 92 -208 238 -219 250 -5 6 -33 37 -62 70 -28 32 -60
68 -70 80 -10 11 -43 49 -73 84 -30 34 -59 68 -65 74 -5 6 -41 47 -80 91 -38
44 -73 82 -76 85 -4 3 -119 5 -255 5 l-248 0 -68 -95 c-37 -52 -89 -126 -115
-165 -26 -38 -52 -75 -58 -82 -11 -13 -23 -30 -115 -163 -33 -47 -66 -94 -74
-105 -8 -11 -62 -87 -120 -170 -57 -82 -108 -154 -113 -160 -4 -5 -21 -30 -38
-55 -16 -25 -34 -49 -38 -55 -5 -5 -51 -71 -103 -145 -52 -74 -102 -144 -110
-155 -8 -11 -45 -65 -83 -120 -39 -55 -75 -105 -80 -112 -6 -7 -11 -17 -11
-23 0 -5 -4 -10 -8 -10 -4 0 -16 -15 -27 -32 -10 -18 -21 -35 -25 -38 -3 -3
-32 -42 -62 -87 -31 -44 -69 -99 -85 -121 -15 -22 -35 -50 -43 -62 -8 -12 -21
-28 -27 -36 -7 -7 -13 -17 -13 -23 0 -6 -4 -11 -9 -11 -5 0 -12 -8 -15 -18 -4
-10 -14 -27 -24 -38 -19 -22 -26 -32 -127 -179 -38 -55 -77 -109 -87 -119 -10
-11 -18 -25 -18 -32 0 -7 -4 -14 -9 -16 -4 -1 -31 -37 -59 -78 -29 -41 -62
-88 -76 -105 l-24 -30 -22 28 c-12 15 -27 33 -33 40 -7 6 -39 43 -72 81 -33
39 -73 84 -90 102 -16 17 -49 53 -72 80 -22 27 -50 58 -60 69 -10 11 -50 56
-88 100 -60 70 -181 208 -210 241 -5 6 -32 37 -60 69 -27 31 -61 70 -75 85
-14 15 -50 55 -80 90 -30 35 -73 83 -95 108 -22 24 -44 51 -48 58 -8 14 27 58
177 225 22 25 61 70 86 99 25 29 54 62 65 74 11 12 47 53 80 91 33 38 67 76
75 85 8 9 42 47 75 85 33 39 62 72 65 75 3 3 36 41 75 85 38 44 74 85 80 91 5
6 37 42 70 79 33 38 69 79 80 91 11 12 40 46 65 75 25 29 59 67 75 85 17 17
39 43 50 57 11 13 49 57 85 97 36 40 67 76 68 81 4 11 19 10 -248 12 l-225 2
-30 -30z"/>
</g>
</svg>
